<mxfile host="65bd71144e">
    <diagram name="Page-1" id="eQEpRAQMRwOgO-GKSp-W">
        <mxGraphModel dx="570" dy="648" grid="1" gridSize="10" guides="1" tooltips="1" connect="1" arrows="1" fold="1" page="1" pageScale="1" pageWidth="850" pageHeight="1100" math="0" shadow="0">
            <root>
                <mxCell id="0"/>
                <mxCell id="1" parent="0"/>
                <mxCell id="hlTfDHmRTShrOOgZvUEg-1" value="&lt;p style=&quot;line-height: 90%;&quot;&gt;&lt;/p&gt;&lt;h5 style=&quot;text-align: center; line-height: 148%;&quot;&gt;&lt;b style=&quot;background-color: initial;&quot;&gt;&lt;font style=&quot;font-size: 13px;&quot;&gt;Concept &amp;amp; Requirements Identification&lt;/font&gt;&lt;/b&gt;&lt;/h5&gt;&lt;div&gt;&lt;ul&gt;&lt;li&gt;Related Literature and System Problems&lt;/li&gt;&lt;li&gt;Hardware and Software Requirements&lt;/li&gt;&lt;li&gt;User Requirements&lt;/li&gt;&lt;/ul&gt;&lt;/div&gt;&lt;p&gt;&lt;/p&gt;" style="rounded=1;whiteSpace=wrap;html=1;align=left;spacing=10;" parent="1" vertex="1">
                    <mxGeometry x="30" y="80" width="210" height="240" as="geometry"/>
                </mxCell>
                <mxCell id="hlTfDHmRTShrOOgZvUEg-2" value="&lt;h4&gt;INPUT&lt;/h4&gt;" style="rounded=1;whiteSpace=wrap;html=1;" parent="1" vertex="1">
                    <mxGeometry x="65" y="60" width="145" height="40" as="geometry"/>
                </mxCell>
                <mxCell id="hlTfDHmRTShrOOgZvUEg-3" value="&lt;p style=&quot;line-height: 90%;&quot;&gt;&lt;/p&gt;&lt;h5 style=&quot;text-align: center; line-height: 148%;&quot;&gt;&lt;span style=&quot;font-size: 13px;&quot;&gt;AGILE Software Methodology Model&lt;/span&gt;&lt;/h5&gt;&lt;div&gt;&lt;ul&gt;&lt;li&gt;&lt;span style=&quot;font-size: 13px;&quot;&gt;Planning Phase&lt;/span&gt;&lt;/li&gt;&lt;li&gt;&lt;span style=&quot;font-size: 13px;&quot;&gt;Development Phase&lt;/span&gt;&lt;/li&gt;&lt;li&gt;&lt;span style=&quot;font-size: 13px;&quot;&gt;Testing Phase&lt;/span&gt;&lt;/li&gt;&lt;li&gt;&lt;span style=&quot;font-size: 13px;&quot;&gt;Deployment Phase&lt;/span&gt;&lt;/li&gt;&lt;/ul&gt;&lt;/div&gt;&lt;p&gt;&lt;/p&gt;" style="rounded=1;whiteSpace=wrap;html=1;align=left;spacing=10;" parent="1" vertex="1">
                    <mxGeometry x="320" y="80" width="210" height="240" as="geometry"/>
                </mxCell>
                <mxCell id="hlTfDHmRTShrOOgZvUEg-4" value="&lt;p style=&quot;line-height: 90%;&quot;&gt;&lt;/p&gt;&lt;h5 style=&quot;line-height: 148%;&quot;&gt;&lt;span style=&quot;font-size: 13px;&quot;&gt;FreEzMenu: A Customizable UI, Free and Open Source Menu Application System for Foodservice Industry&lt;/span&gt;&lt;/h5&gt;&lt;span id=&quot;docs-internal-guid-66b5f3af-7fff-0cfa-93a6-fb8ffc17fb4d&quot;&gt;&lt;/span&gt;&lt;p&gt;&lt;/p&gt;" style="rounded=1;whiteSpace=wrap;html=1;align=center;spacing=10;" parent="1" vertex="1">
                    <mxGeometry x="610" y="80" width="210" height="240" as="geometry"/>
                </mxCell>
                <mxCell id="hlTfDHmRTShrOOgZvUEg-5" value="&lt;h4&gt;PROCESS&lt;/h4&gt;" style="rounded=1;whiteSpace=wrap;html=1;" parent="1" vertex="1">
                    <mxGeometry x="353" y="60" width="145" height="40" as="geometry"/>
                </mxCell>
                <mxCell id="hlTfDHmRTShrOOgZvUEg-6" value="&lt;h4&gt;OUTPUT&lt;/h4&gt;" style="rounded=1;whiteSpace=wrap;html=1;" parent="1" vertex="1">
                    <mxGeometry x="642.5" y="60" width="145" height="40" as="geometry"/>
                </mxCell>
                <mxCell id="hlTfDHmRTShrOOgZvUEg-8" value="" style="html=1;shadow=0;dashed=0;align=center;verticalAlign=middle;shape=mxgraph.arrows2.arrow;dy=0.6;dx=40;notch=15;" parent="1" vertex="1">
                    <mxGeometry x="210" y="165" width="130" height="70" as="geometry"/>
                </mxCell>
                <mxCell id="hlTfDHmRTShrOOgZvUEg-9" value="" style="html=1;shadow=0;dashed=0;align=center;verticalAlign=middle;shape=mxgraph.arrows2.arrow;dy=0.6;dx=40;notch=15;" parent="1" vertex="1">
                    <mxGeometry x="510" y="165" width="120" height="70" as="geometry"/>
                </mxCell>
            </root>
        </mxGraphModel>
    </diagram>
</mxfile>